<?xml version="1.0" encoding="UTF-8"?>
<svg version="1.1" xmlns="http://www.w3.org/2000/svg" width="640" height="640">
<path d="M0 0 C211.2 0 422.4 0 640 0 C640 211.2 640 422.4 640 640 C428.8 640 217.6 640 0 640 C0 428.8 0 217.6 0 0 Z " fill="#3178C6" transform="translate(0,0)"/>
<path d="M0 0 C0.97167114 0.00149048 1.94334229 0.00298096 2.94445801 0.0045166 C16.92741689 0.0431165 30.65525756 0.34640184 44.375 3.3125 C45.13603027 3.47298828 45.89706055 3.63347656 46.68115234 3.79882812 C53.93333236 5.36969744 60.51183578 7.37114391 67.375 10.3125 C67.375 29.4525 67.375 48.5925 67.375 68.3125 C63.44868008 66.74197203 60.01194644 65.05831315 56.3125 63.0625 C33.16844271 51.18606753 2.07792147 45.49451269 -23.1875 53.109375 C-31.88389437 56.15311303 -38.43788385 60.53182577 -43.625 68.3125 C-45.6585013 74.4130039 -45.94137411 81.91605381 -43.6015625 87.953125 C-33.9587338 103.18985985 -16.16246865 110.34088634 -0.26657104 117.18286133 C21.95810102 126.76941519 42.74012731 136.28363668 60.375 153.3125 C61.00148438 153.91320312 61.62796875 154.51390625 62.2734375 155.1328125 C75.25200584 168.69864638 79.56405056 186.20753784 79.61523438 204.40551758 C79.62489342 206.47714119 79.65594724 208.54775101 79.6875 210.61914062 C79.75172205 218.63859791 79.04455147 225.72290308 76.375 233.3125 C75.99859375 234.405625 75.6221875 235.49875 75.234375 236.625 C66.80182336 257.05315327 52.40923723 270.96967979 32.25 279.5625 C23.25898988 283.05238453 13.8113164 285.38300425 4.375 287.3125 C3.47676514 287.50013916 2.57853027 287.68777832 1.65307617 287.88110352 C-9.17540125 289.85176451 -20.09302501 289.75238951 -31.0625 289.75 C-32.10046722 289.7510675 -33.13843445 289.75213501 -34.20785522 289.75323486 C-61.31579603 289.71306838 -87.09741325 286.57629338 -111.625 274.3125 C-111.625 253.8525 -111.625 233.3925 -111.625 212.3125 C-108.44068847 213.90465576 -105.70409045 215.60574655 -102.80419922 217.63818359 C-79.65579329 233.75063669 -48.65217134 243.78072991 -20.25292969 238.90527344 C-7.9056708 236.4127696 2.85943144 233.01649159 10.375 222.3125 C13.23933877 216.30042499 13.61851237 209.35223478 11.65234375 202.96484375 C2.34198223 183.40177643 -22.95291854 175.43394982 -41.39868164 167.38378906 C-59.46671001 159.47430964 -76.3146568 151.18450836 -90.625 137.3125 C-91.55892578 136.48878906 -91.55892578 136.48878906 -92.51171875 135.6484375 C-101.9098961 127.07392063 -107.1184899 115.32265201 -110.625 103.3125 C-110.87121094 102.46945312 -111.11742187 101.62640625 -111.37109375 100.7578125 C-116.08161965 80.42133518 -112.72808572 58.69185774 -101.76660156 41.05566406 C-95.57474964 31.60103987 -88.00153065 24.57183296 -78.625 18.3125 C-77.779375 17.74789063 -76.93375 17.18328125 -76.0625 16.6015625 C-67.0931721 10.93823687 -57.56267083 7.40401772 -47.375 4.625 C-46.64998291 4.42253662 -45.92496582 4.22007324 -45.17797852 4.01147461 C-30.31502763 0.15299401 -15.24993714 -0.05776246 0 0 Z " fill="#FEFEFE" transform="translate(507.625,297.6875)"/>
<path d="M0 0 C73.59 0 147.18 0 223 0 C223 16.83 223 33.66 223 51 C196.6 51 170.2 51 143 51 C143 126.57 143 202.14 143 280 C121.88 280 100.76 280 79 280 C79 204.43 79 128.86 79 51 C52.93 51 26.86 51 0 51 C0 34.17 0 17.34 0 0 Z " fill="#FEFEFE" transform="translate(148,304)"/>
<path d="M0 0 C0.33 0 0.66 0 1 0 C1.23074219 0.82242188 1.46148437 1.64484375 1.69921875 2.4921875 C7.05911138 20.83869747 15.84771132 33.64818711 32.53515625 43.49609375 C38.44260348 46.65110123 44.49538989 48.47895999 51 50 C51 50.33 51 50.66 51 51 C34.17 51 17.34 51 0 51 C0 34.17 0 17.34 0 0 Z " fill="#000000" transform="translate(0,589)"/>
<path d="M0 0 C0.33 0 0.66 0 1 0 C1 16.83 1 33.66 1 51 C-15.83 51 -32.66 51 -50 51 C-50 50.67 -50 50.34 -50 50 C-48.76636719 49.65388672 -48.76636719 49.65388672 -47.5078125 49.30078125 C-29.16130253 43.94088862 -16.35181289 35.15228868 -6.50390625 18.46484375 C-3.34889877 12.55739652 -1.52104001 6.50461011 0 0 Z " fill="#000000" transform="translate(639,589)"/>
<path d="M0 0 C16.83 0 33.66 0 51 0 C51 16.83 51 33.66 51 51 C50.67 51 50.34 51 50 51 C49.76925781 50.17757812 49.53851562 49.35515625 49.30078125 48.5078125 C43.94088862 30.16130253 35.15228868 17.35181289 18.46484375 7.50390625 C12.55739652 4.34889877 6.50461011 2.52104001 0 1 C0 0.67 0 0.34 0 0 Z " fill="#000000" transform="translate(589,0)"/>
<path d="M0 0 C16.83 0 33.66 0 51 0 C51 0.33 51 0.66 51 1 C50.17757812 1.23074219 49.35515625 1.46148437 48.5078125 1.69921875 C31.16262048 6.76657854 17.66187637 15.02171961 8.27734375 30.91796875 C4.86421599 37.40039568 2.60235681 43.85967317 1 51 C0.67 51 0.34 51 0 51 C0 34.17 0 17.34 0 0 Z " fill="#000000" transform="translate(0,0)"/>
</svg>
